# Blender v2.78 (sub 0) OBJ File: 'julia-körper.blend'
# www.blender.org
mtllib julia-körper.mtl
o Cube_Cube.001
v -1.500000 -2.500000 0.800000
v -1.500000 2.500000 0.800000
v -1.500000 -2.500000 -0.800000
v -1.500000 2.500000 -0.800000
v 1.500000 -2.500000 0.800000
v 1.500000 2.500000 0.800000
v 1.500000 -2.500000 -0.800000
v 1.500000 2.500000 -0.800000
vt 0.5000 0.0001
vt 0.7500 0.0001
vt 0.7500 0.2500
vt 0.5000 0.2500
vt 0.2500 0.5000
vt 0.2500 0.2500
vt 0.5000 0.5000
vt 0.0314 0.9519
vt 0.0314 0.0367
vt 0.9466 0.0367
vt 0.9466 0.9519
vt 0.0046 0.9949
vt 0.0046 0.0038
vt 0.9868 0.0038
vt 0.9868 0.9949
vt 0.7500 0.5000
vt 0.9999 0.2500
vt 0.9999 0.5000
vt 0.7500 0.7500
vt 0.5000 0.7500
vn 0.0000 1.0000 0.0000
vn 1.0000 0.0000 0.0000
vn 0.0000 0.0000 -1.0000
vn 0.0000 0.0000 1.0000
vn -1.0000 0.0000 0.0000
vn 0.0000 -1.0000 0.0000
usemtl Front
s off
f 8/1/1 4/2/1 2/3/1 6/4/1
usemtl right
f 7/5/2 8/6/2 6/4/2 5/7/2
usemtl back.001
f 3/8/3 4/9/3 8/10/3 7/11/3
usemtl top
f 5/12/4 6/13/4 2/14/4 1/15/4
usemtl top_body2.jpg
f 1/16/5 2/3/5 4/17/5 3/18/5
usemtl top_NONE
f 3/19/6 7/20/6 5/7/6 1/16/6
